<?xml version="1.0" encoding="UTF-8"?>
<svg width="49px" height="100px" viewBox="0 0 49 100" version="1.1" xmlns="http://www.w3.org/2000/svg" xmlns:xlink="http://www.w3.org/1999/xlink">
    <!-- Generator: Sketch 52.5 (67469) - http://www.bohemiancoding.com/sketch -->
    <title>Untitled</title>
    <desc>Created with Sketch.</desc>
    <g id="Page-1" stroke="none" stroke-width="1" fill="none" fill-rule="evenodd">
        <g id="icon">
            <path d="M40.2711777,85.0235704 C40.1911157,84.7450329 40.0576791,84.5062865 39.8308368,84.3073311 C39.7374311,84.2144853 39.5906508,84.1349031 39.4572142,84.0951121 C39.2036846,84.0022662 38.9368113,84.0022662 38.6565944,84.055321 C38.3630337,84.1349031 38.0561295,84.2542764 37.8025999,84.4267043 C37.5490702,84.5991323 37.282197,84.7980877 37.082042,85.0368341 C36.5616391,85.5673817 36.1880165,86.1642478 35.8944559,86.8274323 C35.7209883,87.2783977 35.6008953,87.7293632 35.534177,88.2333834 C35.5208333,88.3925477 35.5208333,88.551712 35.5475207,88.7108763 C35.5608643,88.7904584 35.5875517,88.8700406 35.5875517,88.9496227 C35.6275826,89.2679513 35.7610193,89.5464888 35.9611742,89.7984989 C36.0412362,89.8913447 36.1346419,89.9709269 36.2547348,90.0372453 C36.4282025,90.1168275 36.6283574,90.1566185 36.8551997,90.1566185 C37.0286674,90.1566185 37.2288223,90.1168275 37.4156336,90.0637727 C37.6691632,89.9709269 37.9093492,89.8515536 38.1361915,89.7056531 C38.4297521,89.5066977 38.6966253,89.2679513 38.910124,89.0159412 C39.5239325,88.3262293 39.9642734,87.5569352 40.177772,86.6815317 C40.257834,86.3897305 40.3112087,86.0714019 40.3112087,85.7796007 C40.3645833,85.5143269 40.3512397,85.2755805 40.2711777,85.0235704 Z M41.7923554,85.8326555 C41.7923554,86.3499394 41.6989497,86.8937507 41.4987948,87.437562 C41.1652032,88.4588662 40.6047693,89.3740608 39.8441804,90.1566185 C39.6039945,90.4086286 39.3237775,90.6739024 39.0035296,90.8728578 C38.7633437,91.0452858 38.4831267,91.1911864 38.2295971,91.3105596 C37.7358815,91.5227786 37.242166,91.6023608 36.6950758,91.6023608 C36.3748278,91.5890971 36.0545799,91.5095149 35.7877066,91.4034054 C35.414084,91.2707685 35.0938361,91.0320221 34.8403065,90.7136935 C34.4800275,90.2759917 34.2665289,89.7852352 34.146436,89.2281602 C34.0930613,88.8700406 34.0530303,88.5119209 34.0930613,88.1405376 C34.1330923,87.7426269 34.1864669,87.3712436 34.3065599,86.9733329 C34.6001205,85.9255013 35.1472107,84.997043 35.8811123,84.2144853 C36.2013602,83.8563657 36.5616391,83.5380371 36.9352617,83.286027 C37.2555096,83.0738079 37.6157886,82.8881163 37.9894112,82.7687431 C38.4697831,82.5963151 38.9368113,82.5697877 39.4438705,82.6361062 C39.7374311,82.6758972 40.0176481,82.7554794 40.297865,82.8881163 C40.377927,82.9279073 40.4313017,82.9676984 40.49802,83.0074895 C41.1118285,83.4451913 41.4854511,84.055321 41.6722624,84.784824 C41.7790117,85.1562073 41.7923554,85.3551627 41.7923554,85.8326555 Z M40.2711777,11.8212639 C40.177772,11.5029354 39.9909607,11.2243979 39.7107438,11.0121788 C39.6707128,10.9989151 39.6707128,10.9723878 39.6306818,10.9723878 C39.5372762,10.9325967 39.4572142,10.8928056 39.3771522,10.8795419 C39.1369663,10.8397509 38.8567493,10.8397509 38.6165634,10.8928056 C38.3230028,10.9723878 38.0427858,11.1050247 37.7625689,11.2907163 C37.5223829,11.4631443 37.282197,11.6620996 37.082042,11.861055 C36.4682335,12.5109758 36.0278926,13.2670062 35.7476756,14.1158823 C35.65427,14.4474746 35.5875517,14.7923305 35.574208,15.1371865 C35.5608643,15.3361418 35.5875517,15.5483609 35.614239,15.7473162 C35.65427,16.0789085 35.7877066,16.3839734 36.0145489,16.6359835 C36.0946109,16.7288293 36.1880165,16.7951478 36.2680785,16.8349388 C36.6016701,16.9941031 36.961949,17.0073668 37.322228,16.9277847 C37.6157886,16.8482025 37.8826618,16.7155656 38.1361915,16.5564013 C38.4297521,16.357446 38.6966253,16.1186996 38.910124,15.8666895 C39.4705579,15.2565597 39.8575241,14.5668478 40.1243974,13.8108175 C40.257834,13.4129068 40.3645833,13.0017324 40.3645833,12.5507669 C40.3645833,12.3120205 40.3512397,12.073274 40.2711777,11.8212639 Z M41.7923554,12.7099312 C41.7923554,13.147633 41.6989497,13.6914443 41.4987948,14.2352556 C41.1652032,15.2565597 40.6047693,16.1717543 39.8708678,16.9543121 C39.6173382,17.2328496 39.3104339,17.471596 39.0168733,17.683815 C38.7766873,17.856243 38.4964704,18.0021436 38.2429408,18.1215168 C37.7892562,18.3204722 37.3355716,18.413318 36.8151687,18.4000543 C36.2947658,18.3867906 35.8410813,18.24089 35.4274277,18.0021436 C35.334022,17.9490888 35.2539601,17.8827704 35.1738981,17.8031882 C34.7735882,17.4318049 34.4800275,16.9941031 34.3199036,16.4768192 C34.146436,15.9064805 34.106405,15.3096145 34.1864669,14.6994847 C34.3866219,13.0813145 35.293991,11.6620996 36.0946109,10.8264872 C36.3881715,10.534686 36.7351067,10.2561485 37.0686983,10.0174021 C37.4690083,9.76539194 37.9093492,9.56643659 38.3630337,9.46032707 C38.4564394,9.44706338 38.5365014,9.420536 38.6432507,9.420536 C38.8567493,9.38074493 39.0835916,9.38074493 39.2970902,9.40727231 C39.6573691,9.420536 39.9776171,9.52664552 40.2845213,9.65928242 C40.377927,9.69907349 40.457989,9.75212825 40.5247073,9.79191932 C41.1385158,10.2296211 41.4987948,10.8397509 41.6989497,11.5692538 C41.7790117,11.9406371 41.7923554,12.2589657 41.7923554,12.7099312 Z M25.7399277,26.9683982 C25.7399277,26.5306964 25.7532713,26.119522 25.7933023,25.7083476 C25.7933023,25.6287655 25.806646,25.5491833 25.8333333,25.4696012 C25.8733643,25.4298101 25.926739,25.3767554 25.926739,25.3104369 C25.926739,25.1512726 25.926739,24.9921083 25.9400826,24.8329441 C25.9400826,24.793153 25.9400826,24.7400982 25.9534263,24.7003072 C25.9934573,24.620725 26.0334883,24.5676703 26.1268939,24.5411429 C26.2202996,24.5013518 26.3003616,24.5013518 26.4071109,24.5411429 C26.4471419,24.5544066 26.5005165,24.5809339 26.5272039,24.620725 C26.6206095,24.7400982 26.7006715,24.8727351 26.7006715,25.0584268 C26.7006715,25.2308548 26.7006715,25.4298101 26.7140152,25.6287655 C26.7140152,25.6685565 26.7540461,25.7216113 26.7673898,25.7481387 C26.8607955,25.8277208 26.9408574,25.8675119 27.0609504,25.8675119 C27.1410124,25.8675119 27.2210744,25.8675119 27.3011364,25.8807756 C27.354511,25.8807756 27.4212293,25.9205667 27.474604,25.9603577 C27.6080406,26.0532036 27.6480716,26.2123678 27.634728,26.3715321 C27.6213843,26.5306964 27.514635,26.6102786 27.394542,26.6898607 C27.354511,26.7031244 27.3011364,26.7296518 27.2611054,26.7296518 C27.1276687,26.7429155 26.9808884,26.7163881 26.8207645,26.7429155 C26.7807335,26.7561791 26.7273588,26.7827065 26.7273588,26.8357613 C26.7273588,26.849025 26.7140152,26.8755524 26.7140152,26.8755524 C26.7140152,26.9153434 26.7006715,26.9286071 26.7006715,26.9683982 C26.7006715,27.1275625 26.6472968,27.2469357 26.5672348,27.3663089 C26.5272039,27.4193637 26.4738292,27.4856821 26.3937672,27.5387369 C26.3137052,27.5785279 26.2202996,27.6315827 26.1402376,27.6581101 C26.0868629,27.6713738 26.0201446,27.6713738 25.96677,27.618319 C25.926739,27.5785279 25.886708,27.5652643 25.8733643,27.5254732 C25.8199897,27.4724184 25.7799587,27.4061 25.7799587,27.3132541 C25.7399277,27.2071446 25.7399277,27.0877714 25.7399277,26.9683982 Z M26.9942321,92.5175554 C26.9942321,90.8595941 26.9942321,89.1751054 26.9942321,87.5171442 C26.9942321,87.3845073 26.9942321,87.2386067 27.0075758,87.0794424 C27.0075758,87.0263876 27.0476067,86.9600692 27.0876377,86.9070144 C27.1676997,86.8141686 27.2611054,86.7345864 27.4078857,86.7345864 C27.5680096,86.7345864 27.6881026,86.7743775 27.7815083,86.9070144 C27.8215393,86.9468055 27.8348829,86.9998602 27.8615702,87.0794424 C27.8615702,87.1988156 27.8615702,87.3181888 27.8615702,87.4508257 C27.8615702,89.2679513 27.8615702,91.0983405 27.8615702,92.9154661 C27.8615702,94.4009994 27.8615702,95.8600053 27.8615702,97.3322749 C27.8615702,97.4516482 27.8615702,97.5710214 27.8615702,97.7036583 C27.8482266,97.9424047 27.7681646,98.14136 27.5680096,98.273997 C27.514635,98.313788 27.394542,98.313788 27.3278237,98.2872606 C27.31448,98.273997 27.2877927,98.273997 27.2877927,98.2474696 C27.234418,98.1944148 27.1543561,98.1280964 27.0876377,98.0485142 C27.0476067,98.0087231 27.0075758,97.9556684 27.0075758,97.8760862 C27.0075758,97.756713 27.0075758,97.6373398 27.0075758,97.5047029 C26.9942321,95.873269 26.9942321,94.202044 26.9942321,92.5175554 Z M27.7548209,19.1030299 C27.7548209,20.853837 27.7548209,22.6179078 27.7548209,24.3687149 C27.7548209,24.5013518 27.7548209,24.6472524 27.7548209,24.8064167 C27.7548209,24.9390536 27.674759,25.0451631 27.5813533,25.1247452 C27.4879477,25.2175911 27.2877927,25.2175911 27.1810434,25.1247452 C27.1410124,25.0849542 27.1009814,25.0716905 27.0876377,25.0318994 C27.0476067,24.9921083 27.0075758,24.9390536 27.0075758,24.8594714 C27.0075758,24.7400982 26.9942321,24.620725 26.9942321,24.4880881 C26.9942321,23.4269929 26.9942321,22.352634 26.9942321,21.2915388 C26.9942321,21.1721656 26.9942321,21.0527923 26.9942321,20.9201554 C26.9942321,20.8405733 26.9808884,20.7609912 26.9542011,20.681409 C26.9141701,20.5885632 26.9141701,20.508981 26.9141701,20.4028715 C26.9141701,20.296762 26.9141701,20.1906525 26.9141701,20.0712793 C26.9141701,17.9623525 26.9141701,15.8666895 26.9141701,13.7710264 C26.9141701,13.6781806 26.9141701,13.5588074 26.9141701,13.4394341 C26.9141701,13.3200609 26.9542011,13.2272151 27.0342631,13.147633 C27.0742941,13.1078419 27.1276687,13.0547871 27.1676997,13.0282597 C27.2611054,12.9354139 27.4078857,12.9354139 27.5012913,13.0415234 C27.5413223,13.0813145 27.594697,13.1343693 27.634728,13.1741603 C27.6881026,13.2537425 27.7281336,13.3333246 27.7281336,13.4261705 C27.7281336,13.5588074 27.7281336,13.7047079 27.7281336,13.8638722 C27.7548209,15.6146793 27.7548209,17.3522228 27.7548209,19.1030299 Z M27.7548209,11.9406371 C27.7414773,11.7682092 27.8348829,11.6620996 27.9549759,11.5825175 C27.9950069,11.5427264 28.0350379,11.5427264 28.0750689,11.5029354 C28.1684745,11.4498806 28.3152548,11.4100895 28.3953168,11.30398 C28.4353478,11.2641889 28.4887225,11.2509253 28.5687844,11.2111342 C28.6621901,11.1580794 28.8089704,11.1182883 28.8890324,11.0121788 C28.942407,10.9723878 29.022469,10.9325967 29.0891873,10.8928056 C29.1559056,10.8530145 29.222624,10.8132235 29.2893423,10.7734324 C29.3827479,10.6938503 29.4628099,10.6540592 29.5695592,10.6010044 C29.6629649,10.5479497 29.8097452,10.5081586 29.9031508,10.4285765 C29.9965565,10.3887854 30.1033058,10.3357306 30.1833678,10.2561485 C30.2233988,10.2163574 30.2767734,10.2030937 30.3568354,10.1633027 C30.450241,10.1102479 30.5970213,10.0704568 30.6770833,9.9643473 C30.730458,9.92455623 30.81052,9.88476516 30.8772383,9.84497408 C31.0507059,9.75212825 31.2108299,9.67254611 31.3709539,9.56643659 C31.4243285,9.52664552 31.5043905,9.48685445 31.5711088,9.47359076 C31.7312328,9.39400862 31.8646694,9.31442647 32.0114497,9.22158064 C32.0514807,9.18178957 32.1048554,9.16852588 32.1849174,9.12873481 C32.238292,9.08894374 32.3050103,9.08894374 32.358385,9.03588898 C32.5318526,8.90325208 32.7320076,8.79714256 32.9321625,8.71756041 C33.0655992,8.63797827 33.2257231,8.58492351 33.3458161,8.47881399 C33.3858471,8.43902292 33.4258781,8.43902292 33.4659091,8.39923185 C33.5860021,8.34617709 33.706095,8.26659495 33.8395317,8.1870128 C33.9329373,8.13395804 34.0396866,8.09416697 34.1330923,8.02784852 C34.3732782,7.85542055 34.6534952,7.73604734 34.9070248,7.59014674 C34.9603994,7.55035567 35.0004304,7.53709198 35.0804924,7.49730091 C35.1738981,7.41771877 35.2539601,7.3779277 35.3607094,7.32487294 C35.374053,7.32487294 35.4007404,7.31160925 35.4007404,7.31160925 C35.5208333,7.23202711 35.6409263,7.15244496 35.7743629,7.0993902 C35.8944559,7.01980806 36.0145489,6.98001699 36.1479855,6.90043485 C36.3614842,6.72800688 36.6417011,6.60863366 36.8818871,6.48926045 C37.0553547,6.39641462 37.202135,6.2903051 37.362259,6.19745927 C37.4423209,6.1576682 37.5223829,6.10461344 37.6024449,6.03829498 C37.7759125,5.94544915 37.9760675,5.86586701 38.1361915,5.7464938 C38.1762225,5.73323011 38.1895661,5.70670273 38.2162534,5.70670273 C38.3363464,5.65364797 38.4564394,5.57406583 38.589876,5.49448368 C38.6832817,5.41490154 38.8033747,5.37511047 38.9234676,5.32205571 C39.0969353,5.22920988 39.2970902,5.14962774 39.4572142,5.03025453 C39.4972452,5.01699084 39.4972452,4.99046345 39.5372762,4.99046345 C39.6707128,4.91088131 39.8174931,4.85782655 39.9375861,4.75171703 C39.9776171,4.71192596 40.0309917,4.69866227 40.1110537,4.6588712 C40.1644284,4.61908013 40.2444904,4.57928906 40.3112087,4.53949799 C40.4046143,4.45991585 40.5247073,4.40686108 40.6314566,4.34054263 C40.7515496,4.28748787 40.8849862,4.22116942 41.0050792,4.14158728 C41.1251722,4.08853252 41.2452652,3.982423 41.3787018,3.92936824 C41.4721074,3.87631347 41.6188877,3.8365224 41.6989497,3.73041288 C41.7389807,3.69062181 41.7790117,3.69062181 41.8190427,3.65083074 C42.0325413,3.55798491 42.2593836,3.45187539 42.4328512,3.2927111 C42.4728822,3.25292003 42.5262569,3.23965634 42.6063189,3.19986527 C42.7664428,3.12028313 42.8998795,3.06722837 43.0466598,2.94785516 C43.0866908,2.90806409 43.1400654,2.8948004 43.2201274,2.85500933 C43.2735021,2.81521825 43.3402204,2.81521825 43.393595,2.76216349 C43.5670627,2.60299921 43.793905,2.52341707 44.0074036,2.40404386 C44.1274966,2.3509891 44.2609332,2.28467064 44.3810262,2.19182481 C44.4210572,2.15203374 44.4610882,2.15203374 44.5011191,2.11224267 C44.5411501,2.09897898 44.5945248,2.0724516 44.6212121,2.05918791 C44.7413051,1.97960577 44.8613981,1.90002363 44.9948347,1.84696887 C45.1149277,1.76738673 45.2483643,1.72759565 45.3684573,1.64801351 C45.5419249,1.5286403 45.7287362,1.43579447 45.9022039,1.35621233 C45.9822658,1.31642126 46.0623278,1.31642126 46.1423898,1.31642126 C46.3158574,1.30315757 46.4359504,1.3960034 46.5426997,1.5286403 C46.5960744,1.62148613 46.5960744,1.8071778 46.5293561,1.88675994 C46.4359504,2.00613315 46.3158574,2.12550636 46.1690771,2.17856112 C46.0756715,2.21835219 45.9288912,2.27140695 45.8488292,2.37751648 C45.8087982,2.39078017 45.8087982,2.41730755 45.7687672,2.41730755 C45.6353306,2.49688969 45.4752066,2.54994445 45.3551136,2.62952659 C45.221677,2.70910873 45.101584,2.80195456 44.9548037,2.86827302 C44.7946798,2.92132778 44.7012741,3.04070099 44.5544938,3.10701944 C44.4344008,3.1600742 44.3009642,3.19986527 44.1808712,3.30597479 C44.0074036,3.42534801 43.8205923,3.51819384 43.6471247,3.59777598 C43.5670627,3.63756705 43.473657,3.69062181 43.4069387,3.75694026 C43.353564,3.79673133 43.2735021,3.8365224 43.2067837,3.87631347 C43.1400654,3.91610454 43.0866908,3.91610454 43.0333161,3.96915931 C42.8598485,4.10179621 42.6596935,4.20790573 42.4595386,4.28748787 C42.3261019,4.36707001 42.165978,4.42012477 42.045885,4.5262343 C42.005854,4.56602537 41.965823,4.56602537 41.925792,4.60581644 C41.805699,4.6588712 41.6856061,4.73845334 41.5521694,4.81803548 C41.4587638,4.87109024 41.3520145,4.91088131 41.2586088,4.97719976 C41.0184229,5.14962774 40.7382059,5.26900095 40.4846763,5.41490154 C40.4313017,5.45469261 40.3912707,5.4679563 40.3112087,5.50774737 C40.217803,5.58732952 40.137741,5.62712059 40.0309917,5.68017535 C40.0176481,5.68017535 39.9909607,5.69343904 39.9909607,5.69343904 C39.8708678,5.77302118 39.7507748,5.85260332 39.6173382,5.90565808 C39.4972452,5.98524022 39.3771522,6.02503129 39.2437156,6.10461344 C39.0702479,6.26377772 38.8434056,6.34335986 38.629907,6.46273307 C38.589876,6.47599676 38.5365014,6.50252414 38.509814,6.54231521 C38.4164084,6.62189736 38.2963154,6.67495212 38.1895661,6.74127057 C38.1361915,6.78106164 38.0961605,6.79432533 38.0160985,6.8341164 C37.9226928,6.91369854 37.8025999,6.9667533 37.6958506,7.03307175 C37.5757576,7.08612651 37.4423209,7.15244496 37.322228,7.23202711 C37.202135,7.28508187 37.082042,7.39119139 36.9486054,7.44424615 C36.8551997,7.49730091 36.7084194,7.53709198 36.6283574,7.6432015 C36.5883264,7.68299257 36.5482955,7.68299257 36.5082645,7.72278365 C36.2947658,7.81562948 36.0679236,7.921739 35.8944559,8.08090328 C35.8544249,8.12069435 35.8143939,8.12069435 35.7743629,8.13395804 C35.6809573,8.1870128 35.534177,8.22680387 35.4407713,8.30638602 C35.3473657,8.34617709 35.2673037,8.43902292 35.1605544,8.47881399 C35.0004304,8.61145089 34.8269628,8.69103303 34.6401515,8.77061517 C34.4666839,8.86346101 34.2798726,8.92977946 34.146436,9.04915267 C34.106405,9.08894374 34.0530303,9.10220743 33.9729683,9.1419985 C33.8795627,9.18178957 33.7728134,9.23484433 33.6927514,9.31442647 C33.6527204,9.35421755 33.6126894,9.35421755 33.5726584,9.39400862 C33.3591598,9.48685445 33.1323175,9.59296397 32.9588499,9.75212825 C32.9188189,9.79191932 32.8654442,9.80518301 32.7853822,9.84497408 C32.6252583,9.92455623 32.4918216,9.97761099 32.3450413,10.0969842 C32.3050103,10.1367753 32.2516357,10.150039 32.1715737,10.18983 C32.118199,10.2296211 32.0514807,10.2296211 31.9981061,10.2826759 C31.8246384,10.4418401 31.5977961,10.5214223 31.3842975,10.6407955 C31.2642045,10.6938503 31.1307679,10.7601687 31.0106749,10.8530145 C30.9706439,10.8928056 30.9306129,10.8928056 30.890582,10.9325967 C30.770489,10.9856514 30.650396,11.0519699 30.5169594,11.1448157 C30.4635847,11.1846068 30.3835227,11.2243979 30.3168044,11.2376616 C30.2367424,11.2774526 30.1433368,11.3305074 30.0766185,11.3968258 C30.0232438,11.4366169 29.9431818,11.476408 29.8764635,11.5161991 C29.7430269,11.5957812 29.5962466,11.648836 29.4628099,11.7284181 C29.3827479,11.7682092 29.3293733,11.8080002 29.262655,11.8477913 C29.182593,11.9008461 29.102531,11.9406371 29.022469,11.9804282 C28.942407,12.0202193 28.8490014,12.073274 28.7822831,12.1395925 C28.6221591,12.2589657 28.4620351,12.3385479 28.2618802,12.3916026 C28.1684745,12.4313937 28.0483815,12.4048663 27.9683196,12.3385479 C27.8081956,12.1926473 27.7281336,12.0998014 27.7548209,11.9406371 Z M31.7979511,65.8840654 C31.7979511,66.0432297 31.7979511,66.2023939 31.7979511,66.3615582 C31.7979511,66.4013493 31.7979511,66.414613 31.8112948,66.4544041 C31.8246384,66.4676677 31.8513258,66.4941951 31.8913567,66.4941951 C32.0247934,66.414613 32.1715737,66.3350308 32.3050103,66.2554487 C34.9470558,64.7301243 37.5891012,63.2313273 40.2311467,61.7192666 C41.2852961,61.1091369 42.3527893,60.4990071 43.4469697,59.8888774 C43.5270317,59.8490863 43.6204373,59.7960315 43.6871556,59.7297131 C43.7405303,59.689922 43.7805613,59.650131 43.7805613,59.5705488 C43.7805613,59.4113845 43.7805613,59.2522202 43.7805613,59.093056 C43.7805613,51.1746329 43.7805613,43.2562098 43.7805613,35.3377867 C43.7805613,35.2449409 43.7805613,35.1255677 43.7805613,35.0061945 C43.7805613,34.9664034 43.7805613,34.9133486 43.7805613,34.8735576 C43.7805613,34.7939754 43.7271866,34.7541844 43.6604683,34.7807117 C43.5804063,34.8205028 43.4870007,34.8735576 43.4202824,34.9133486 C39.9776171,36.8896385 36.5482955,38.839401 33.1056302,40.8156908 C32.6919766,41.0544372 32.2916667,41.2931837 31.8513258,41.5054027 C31.8112948,41.5186664 31.8112948,41.5451938 31.8112948,41.5849848 C31.7712638,41.7441491 31.7979511,41.9033134 31.7979511,42.0624777 C31.7979511,46.0283211 31.7979511,50.0206918 31.7979511,53.9865352 C31.7979511,57.9523786 31.7979511,61.8916946 31.7979511,65.8840654 Z M46.9430096,3.77020395 C46.9430096,3.59777598 46.9430096,3.41208432 46.9430096,3.25292003 C46.9430096,3.21312896 46.929666,3.1600742 46.929666,3.12028313 C46.929666,3.08049206 46.849604,3.04070099 46.8362603,3.06722837 C46.7028237,3.14681051 46.5560434,3.22639265 46.4226067,3.30597479 C42.2326963,5.69343904 38.0427858,8.08090328 33.8528753,10.4948949 C32.3450413,11.3437711 30.8372073,12.2191746 29.3427169,13.0813145 C29.262655,13.1211056 29.1692493,13.1741603 29.102531,13.2404788 C29.0625,13.2802699 29.022469,13.2935335 29.022469,13.3333246 C29.022469,13.4526978 29.022469,13.572071 29.022469,13.7047079 C29.022469,14.6331663 29.022469,15.5616246 29.022469,16.4900829 C29.022469,19.1030299 29.022469,21.7292405 29.022469,24.3156601 C29.022469,24.4748244 29.022469,24.6339887 29.0358127,24.793153 C29.0358127,24.8329441 29.0758437,24.8329441 29.1158747,24.8329441 C29.1559056,24.8329441 29.2092803,24.8196804 29.2359676,24.793153 C29.8364325,24.4350334 30.4235537,24.1034411 31.0373623,23.7453215 C31.1307679,23.6922667 31.2508609,23.6259482 31.3576102,23.5728935 C31.4510158,23.5198387 31.5977961,23.4800477 31.7312328,23.4800477 C32.0114497,23.4933113 32.2116047,23.6126846 32.3450413,23.851431 C32.3850723,23.9310131 32.4251033,23.9840679 32.4251033,24.06365 C32.4251033,24.236078 32.438447,24.4217697 32.438447,24.5809339 C32.438447,29.3956535 32.438447,34.1971094 32.438447,38.9985652 C32.438447,39.1179385 32.438447,39.2373117 32.438447,39.3699486 C32.438447,39.4097396 32.438447,39.4230033 32.4517906,39.4627944 C32.4651343,39.4760581 32.5051653,39.5025855 32.5318526,39.5025855 C32.6919766,39.4627944 32.8120696,39.3699486 32.9455062,39.2903664 C36.5749828,37.2212308 40.1911157,35.1388314 43.833936,33.0696957 C43.9273416,33.0166409 44.0474346,32.9503225 44.1541839,32.8972677 C44.2475895,32.844213 44.3543388,32.8044219 44.4477445,32.8044219 C44.4877755,32.7911582 44.5411501,32.7911582 44.5811811,32.8044219 C44.6612431,32.8176856 44.7413051,32.844213 44.8213671,32.8574767 C45.061553,32.9503225 45.1949897,33.1492778 45.221677,33.3880243 C45.2350207,33.5604522 45.2350207,33.7461439 45.2350207,33.9053082 C45.2350207,42.5134432 45.2350207,51.1215781 45.2350207,59.7297131 C45.2350207,59.8225589 45.2350207,59.9419321 45.2350207,60.0613054 C45.2350207,60.1143601 45.2350207,60.1806786 45.221677,60.2337333 C45.221677,60.2867881 45.181646,60.3531065 45.1683023,60.4061613 C45.1149277,60.4990071 45.0348657,60.6183803 44.9281164,60.6846988 C44.8480544,60.7244899 44.7546488,60.7775446 44.6879304,60.8173357 C41.9524793,62.3957148 39.1903409,63.9608303 36.4415461,65.5392094 C35.2539601,66.2289213 34.0396866,66.9186332 32.8254132,67.5950814 C32.7320076,67.6481362 32.5852273,67.7144546 32.5051653,67.7940368 C32.4651343,67.8073005 32.4651343,67.8338278 32.4651343,67.8736189 C32.4651343,68.0327832 32.4517906,68.1919475 32.4517906,68.3511118 C32.4517906,73.351523 32.4517906,78.3386705 32.4517906,83.3390817 C32.4517906,83.5115097 32.4517906,83.7104651 32.4517906,83.9094204 C32.4517906,83.9890026 32.4517906,84.0685847 32.438447,84.1481668 C32.438447,84.1879579 32.4251033,84.2410127 32.398416,84.2808037 C32.3450413,84.439968 32.2249483,84.5593412 32.1048554,84.6389234 C32.0247934,84.6787144 31.9313877,84.7317692 31.8646694,84.7715603 C31.0640496,85.2225257 30.2767734,85.6734912 29.4761536,86.1377204 C28.9557507,86.4295216 29.0358127,86.2968847 29.0358127,86.9070144 C29.0358127,90.4218923 29.0358127,93.9500339 29.0358127,97.4516482 C29.0358127,97.544494 29.0358127,97.6240761 29.0358127,97.7434493 C29.0358127,97.7832404 29.0358127,97.8362952 29.0358127,97.8760862 C29.0358127,97.929141 29.1158747,97.9689321 29.1692493,97.9556684 C29.302686,97.8760862 29.4494663,97.7965041 29.5829029,97.716922 C34.6268079,94.8387012 39.6974001,91.9472167 44.7413051,89.0424685 C45.381801,88.6710852 45.9956095,88.3262293 46.6227617,87.9548459 C46.7028237,87.9150549 46.7962293,87.8620001 46.8629477,87.822209 C46.9163223,87.782418 46.9563533,87.7293632 46.9563533,87.6630448 C46.9563533,87.4906168 46.9563533,87.3049251 46.9563533,87.1457608 C46.9563533,73.2188861 46.9563533,59.305275 46.9563533,45.3784003 C46.9430096,31.5443713 46.9430096,17.6705513 46.9430096,3.77020395 Z M25.846677,25.4828649 C25.8333333,25.4298101 25.8333333,25.3634917 25.8333333,25.3104369 C25.8333333,24.8329441 25.8333333,24.3687149 25.8333333,23.8912221 C25.8333333,21.026265 25.8333333,18.1878352 25.8333333,15.2963508 C25.8333333,14.2352556 25.8333333,13.1608966 25.8333333,12.0998014 C25.8333333,11.9804282 25.8333333,11.861055 25.846677,11.7284181 C25.846677,11.648836 25.886708,11.5692538 25.926739,11.5161991 C25.9801136,11.4233532 26.0601756,11.3172437 26.1802686,11.2376616 C26.3403926,11.1448157 26.4738292,11.0652336 26.6206095,10.9856514 C28.1684745,10.0969842 29.7029959,9.20831695 31.2642045,8.31964971 C31.3576102,8.26659495 31.4376722,8.22680387 31.5444215,8.14722173 C31.5977961,8.10743066 31.5977961,8.06763959 31.5577652,8.0543759 C31.5177342,8.01458483 31.4777032,8.00132114 31.4643595,7.97479376 C30.530303,7.44424615 29.5962466,6.91369854 28.6621901,6.39641462 C28.6488464,6.38315093 28.6221591,6.38315093 28.6221591,6.38315093 C28.5287534,6.34335986 28.4486915,6.33009617 28.3686295,6.36988724 C28.1284435,6.50252414 27.9149449,6.62189736 27.6480716,6.76779795 C19.7219353,11.1846068 11.7957989,15.6544704 3.85631887,20.0978066 C3.33591598,20.3896078 2.84220041,20.6681453 2.32179752,20.9466828 C2.28176653,20.9599465 2.24173554,20.9997376 2.22839187,21.0395287 C2.18836088,21.0793197 2.18836088,21.0925834 2.22839187,21.1191108 C2.32179752,21.1721656 2.4018595,21.238484 2.50860882,21.2915388 C7.45910813,24.1299685 12.4229511,26.9816619 17.3734504,29.8068279 C17.586949,29.9262011 17.8137913,30.0455743 18.0272899,30.1782112 C18.2808196,30.2577934 18.5476928,30.3108481 18.8012225,30.3904303 C18.8545971,30.403694 18.9213154,30.4302213 18.9746901,30.4302213 C19.0280647,30.443485 19.0947831,30.443485 19.1481577,30.4302213 C19.3616563,30.3771666 19.5884986,30.3373755 19.7886536,30.2577934 C20.0288395,30.2047386 20.2289945,30.0986291 20.4291494,29.9792559 C22.0971074,29.0110065 23.7650654,28.0692845 25.4330234,27.1142988 C25.5264291,27.061244 25.606491,27.021453 25.7132404,26.9418708 C25.9801136,26.4909053 25.96677,25.9736214 25.846677,25.4828649 Z M30.9706439,26.1991042 C30.9706439,26.0664673 30.9706439,25.9205667 30.9573003,25.7614024 C30.9573003,25.7216113 30.9039256,25.6818202 30.8638946,25.7216113 C30.770489,25.7614024 30.6637397,25.8144571 30.570334,25.8807756 C28.1284435,27.2601994 25.6998967,28.6661505 23.2580062,30.0721017 C22.4840737,30.5098035 21.6834539,30.960769 20.9095213,31.4117344 C20.7894284,31.4913166 20.6693354,31.5311076 20.5358988,31.5841624 C20.1622762,31.6770082 19.8019972,31.7831178 19.4417183,31.8759636 C19.2015324,31.9290183 18.9880337,31.9290183 18.7211605,31.8759636 C18.4409435,31.7963814 18.1874139,31.7035356 17.907197,31.6372172 C17.6136364,31.557635 17.3067321,31.4382618 17.0265152,31.2790975 C12.2628271,28.560041 7.48579545,25.8277208 2.74879477,23.0821369 C2.34848485,22.8433905 1.94817493,22.6311715 1.56120868,22.3924251 C1.52117769,22.3791614 1.50783402,22.3791614 1.46780303,22.3791614 C1.42777204,22.3791614 1.41442837,22.3924251 1.41442837,22.4189524 C1.41442837,22.5913804 1.40108471,22.7770721 1.40108471,22.9362364 C1.40108471,41.7706765 1.40108471,60.6051167 1.40108471,79.4528205 C1.40108471,79.5854574 1.40108471,79.7446217 1.40108471,79.8905223 C1.38774105,80.0496866 1.45445937,80.1292687 1.57455234,80.1823235 C1.66795799,80.2221145 1.74801997,80.2751693 1.86811295,80.3547514 C5.36415289,82.344305 8.84684917,84.3603859 12.3428891,86.3632031 C14.1442837,87.4110346 15.959022,88.4190751 17.7604167,89.4669066 C17.9338843,89.5597525 18.1340393,89.6393346 18.3341942,89.7056531 C18.5476928,89.7587078 18.7745351,89.8250263 18.9746901,89.878081 C19.0547521,89.8913447 19.134814,89.9178721 19.214876,89.878081 C19.4684056,89.7984989 19.7352789,89.7454441 19.9888085,89.665862 C20.1222452,89.6260709 20.2690255,89.5730162 20.3624311,89.493434 C20.4424931,89.4536429 20.5358988,89.4005882 20.6026171,89.3607971 C22.750947,88.1405376 24.9126205,86.8937507 27.0609504,85.6867549 C27.2611054,85.5673817 27.474604,85.4480085 27.674759,85.3153716 C27.7147899,85.2755805 27.7681646,85.2623168 27.8482266,85.2225257 C28.0216942,85.169471 28.1417872,85.0633615 28.3019112,84.9837793 C29.0758437,84.5460775 29.8364325,84.1083758 30.610365,83.6574103 C30.7037707,83.6043555 30.8238636,83.5247734 30.9306129,83.4584549 C30.9706439,83.4186639 30.9839876,83.3788728 30.9839876,83.3390817 C30.9839876,83.1799175 30.9839876,83.0207532 30.9839876,82.8615889 C30.9839876,78.7498449 30.9839876,74.6646283 30.9839876,70.566148 C30.9839876,70.1947647 30.9839876,69.8499088 30.9839876,69.4785254 C30.9839876,69.3989433 30.9839876,69.3193611 30.9706439,69.239779 C30.9706439,69.1999879 30.9573003,69.1867242 30.9306129,69.1601969 C30.850551,69.1204058 30.7571453,69.0806147 30.690427,69.02756 C30.5569904,68.9347141 30.450241,68.8153409 30.4102101,68.6561766 C30.3968664,68.5765945 30.3701791,68.4970124 30.3701791,68.4174302 C30.3701791,68.3245844 30.3701791,68.2052112 30.3701791,68.085838 C30.3701791,59.1195833 30.3701791,50.1400651 30.3701791,41.1738104 C30.3701791,41.0809646 30.3701791,40.9615914 30.3701791,40.8422182 C30.3701791,40.762636 30.3835227,40.6830539 30.4102101,40.6034718 C30.450241,40.4708349 30.5036157,40.3514616 30.650396,40.2453521 C30.690427,40.2055611 30.730458,40.1922974 30.770489,40.16577 C30.81052,40.1259789 30.8638946,40.0861878 30.9306129,40.0729242 C30.9706439,40.0331331 31.0240186,39.9800783 31.0240186,39.9137599 C31.0240186,39.781123 31.0240186,39.6219587 31.0240186,39.4760581 C31.0240186,37.2610218 31.0240186,35.0592492 31.0240186,32.844213 C30.9706439,30.6424404 30.9706439,28.4141404 30.9706439,26.1991042 Z M48.3841253,44.9937532 C48.3841253,59.2920113 48.3841253,73.5902694 48.3841253,87.8752638 C48.3841253,87.9681096 48.3841253,88.0874828 48.3841253,88.2068561 C48.3841253,88.2864382 48.3707817,88.3660203 48.3440944,88.4456025 C48.3040634,88.6047668 48.2106577,88.72414 48.0638774,88.8169858 C47.9437844,88.8965679 47.8236915,88.9496227 47.6902548,89.0292049 C45.7420799,90.1300911 43.7805613,91.2575048 41.8323864,92.3849185 C37.5357266,94.8387012 33.2524105,97.2659565 28.982438,99.7330029 C28.8890324,99.7860576 28.7689394,99.8523761 28.6621901,99.9054309 C28.4220041,100.024804 28.1684745,100.038068 27.9416322,99.9054309 C27.3678547,99.6136297 26.8341081,99.2687737 26.2469869,98.9637088 C26.2069559,98.9239178 26.1669249,98.9239178 26.1268939,98.8841267 C25.96677,98.7647535 25.8733643,98.6055892 25.8733643,98.4066339 C25.8733643,98.273997 25.8733643,98.1148327 25.8733643,97.9689321 C25.8733643,94.8254375 25.8733643,91.7349977 25.8733643,88.5915031 C25.8733643,88.4323388 25.8733643,88.2731745 25.8600207,88.1140102 C25.8199897,88.1007465 25.8199897,88.0742192 25.7799587,88.0742192 C25.7399277,88.0742192 25.726584,88.0742192 25.686553,88.0874828 C25.5531164,88.167065 25.4063361,88.2466471 25.2728994,88.3262293 C23.8584711,89.1353144 22.4573864,89.9311358 21.042958,90.7402209 C20.842803,90.8595941 20.6293044,90.9524399 20.4024621,91.0187584 C20.1222452,91.0718131 19.8420282,91.1779227 19.5618113,91.2309774 C19.5484676,91.2309774 19.5217803,91.2442411 19.5217803,91.2442411 C19.0680957,91.337087 19.1481577,91.337087 18.6811295,91.2442411 C18.3875689,91.164659 18.0673209,91.0718131 17.7737603,91.0054947 C17.5736054,90.9657036 17.4001377,90.8861215 17.1999828,90.7667483 C15.7321798,89.9178721 14.2643767,89.0689959 12.7565427,88.2333834 C8.7267562,85.9255013 4.6969697,83.6176192 0.653839532,81.2964734 C0.560433884,81.2434187 0.440340909,81.1771002 0.333591598,81.1240455 C0.200154959,81.0444633 0.0934056474,80.9250901 0.0400309917,80.7659258 C0,80.7128711 0,80.6465526 0,80.5934979 C0,80.5404431 0,80.4741246 0,80.4210699 C0,80.3016967 0,80.1823235 0,80.0496866 C0,60.5387982 0,41.0544372 0,21.5568126 C0,21.3843846 0,21.1986929 0,21.0395287 C0,20.8405733 0.0934056474,20.6681453 0.253529614,20.5487721 C0.333591598,20.4957174 0.413653581,20.4559263 0.493715565,20.3896078 C0.934056474,20.1375977 1.40108471,19.8723239 1.86811295,19.6203138 C10.5548382,14.7392758 19.214876,9.88476516 27.8882576,4.99046345 C28.0083506,4.91088131 28.1284435,4.85782655 28.2618802,4.7915081 C28.4353478,4.71192596 28.6355028,4.71192596 28.822314,4.7915081 C28.9157197,4.83129917 29.0625,4.91088131 29.1559056,4.96393607 C30.3301481,5.6138569 31.5043905,6.2903051 32.6519456,6.95348961 C32.8120696,7.04633544 32.9455062,7.12591758 33.1056302,7.19223604 C33.1456612,7.23202711 33.1990358,7.20549973 33.2390668,7.19223604 C33.3324725,7.15244496 33.4392218,7.0993902 33.5326274,7.03307175 C35.0671488,6.1576682 36.5749828,5.29552833 38.0961605,4.42012477 C40.49802,3.04070099 42.9265668,1.67454089 45.3284263,0.295117108 C45.421832,0.242062347 45.5018939,0.202271276 45.6219869,0.122689135 C45.7020489,0.082898064 45.7554236,0.0696343738 45.8354855,0.0298433031 C45.9288912,-0.00994776768 46.0489842,-0.00994776768 46.1557335,0.0298433031 C46.2491391,0.0696343738 46.3292011,0.082898064 46.4092631,0.122689135 C46.9430096,0.41449032 47.4767562,0.732818886 48.0238464,1.02462007 C48.0638774,1.03788376 48.0638774,1.06441114 48.1039084,1.06441114 C48.317407,1.19704804 48.4241563,1.3960034 48.4375,1.63474982 C48.4375,1.68780458 48.4375,1.75412303 48.4375,1.8071778 C48.4375,2.01939684 48.4375,2.24487957 48.4375,2.45709862 C48.3841253,16.7023019 48.3841253,30.8413957 48.3841253,44.9937532 Z" id="Shape" fill="#07090A" fill-rule="nonzero"></path>
            <rect id="Rectangle" fill="#231F20" x="17.1875" y="31.25" width="1.5625" height="59.375"></rect>
        </g>
    </g>
</svg>