<?xml version="1.0" encoding="utf-8"?>
<!DOCTYPE svg PUBLIC "-//W3C//DTD SVG 1.1//EN" "http://www.w3.org/Graphics/SVG/1.1/DTD/svg11.dtd"><svg xmlns="http://www.w3.org/2000/svg" xmlns:xlink="http://www.w3.org/1999/xlink" version="1.1" id="Layer_1" x="0px" y="0px" viewBox="0 0 1683 792" style="enable-background:new 0 0 1683 792;" xml:space="preserve">
<style type="text/css">
	.st0{fill:#07090A;}
	.st1{fill:#231F20;}
</style>
<g>
	<path class="st0" d="M961.9,659.7c-0.6-2.1-1.6-3.9-3.3-5.4c-0.7-0.7-1.8-1.3-2.8-1.6c-1.9-0.7-3.9-0.7-6-0.3   c-2.2,0.6-4.5,1.5-6.4,2.8c-1.9,1.3-3.9,2.8-5.4,4.6c-3.9,4-6.7,8.5-8.9,13.5c-1.3,3.4-2.2,6.8-2.7,10.6c-0.1,1.2-0.1,2.4,0.1,3.6   c0.1,0.6,0.3,1.2,0.3,1.8c0.3,2.4,1.3,4.5,2.8,6.4c0.6,0.7,1.3,1.3,2.2,1.8c1.3,0.6,2.8,0.9,4.5,0.9c1.3,0,2.8-0.3,4.2-0.7   c1.9-0.7,3.7-1.6,5.4-2.7c2.2-1.5,4.2-3.3,5.8-5.2c4.6-5.2,7.9-11,9.5-17.6c0.6-2.2,1-4.6,1-6.8   C962.6,663.4,962.5,661.6,961.9,659.7z M973.3,665.8c0,3.9-0.7,8-2.2,12.1c-2.5,7.7-6.7,14.6-12.4,20.5c-1.8,1.9-3.9,3.9-6.3,5.4   c-1.8,1.3-3.9,2.4-5.8,3.3c-3.7,1.6-7.4,2.2-11.5,2.2c-2.4-0.1-4.8-0.7-6.8-1.5c-2.8-1-5.2-2.8-7.1-5.2c-2.7-3.3-4.3-7-5.2-11.2   c-0.4-2.7-0.7-5.4-0.4-8.2c0.3-3,0.7-5.8,1.6-8.8c2.2-7.9,6.3-14.9,11.8-20.8c2.4-2.7,5.1-5.1,7.9-7c2.4-1.6,5.1-3,7.9-3.9   c3.6-1.3,7.1-1.5,10.9-1c2.2,0.3,4.3,0.9,6.4,1.9c0.6,0.3,1,0.6,1.5,0.9c4.6,3.3,7.4,7.9,8.8,13.4   C973.2,660.7,973.3,662.2,973.3,665.8z M961.9,107.8c-0.7-2.4-2.1-4.5-4.2-6.1c-0.3-0.1-0.3-0.3-0.6-0.3c-0.7-0.3-1.3-0.6-1.9-0.7   c-1.8-0.3-3.9-0.3-5.7,0.1c-2.2,0.6-4.3,1.6-6.4,3c-1.8,1.3-3.6,2.8-5.1,4.3c-4.6,4.9-7.9,10.6-10,17c-0.7,2.5-1.2,5.1-1.3,7.7   c-0.1,1.5,0.1,3.1,0.3,4.6c0.3,2.5,1.3,4.8,3,6.7c0.6,0.7,1.3,1.2,1.9,1.5c2.5,1.2,5.2,1.3,7.9,0.7c2.2-0.6,4.2-1.6,6.1-2.8   c2.2-1.5,4.2-3.3,5.8-5.2c4.2-4.6,7.1-9.8,9.1-15.5c1-3,1.8-6.1,1.8-9.5C962.6,111.5,962.5,109.7,961.9,107.8z M973.3,114.5   c0,3.3-0.7,7.4-2.2,11.5c-2.5,7.7-6.7,14.6-12.2,20.5c-1.9,2.1-4.2,3.9-6.4,5.5c-1.8,1.3-3.9,2.4-5.8,3.3   c-3.4,1.5-6.8,2.2-10.7,2.1c-3.9-0.1-7.3-1.2-10.4-3c-0.7-0.4-1.3-0.9-1.9-1.5c-3-2.8-5.2-6.1-6.4-10c-1.3-4.3-1.6-8.8-1-13.4   c1.5-12.2,8.3-22.9,14.3-29.2c2.2-2.2,4.8-4.3,7.3-6.1c3-1.9,6.3-3.4,9.7-4.2c0.7-0.1,1.3-0.3,2.1-0.3c1.6-0.3,3.3-0.3,4.9-0.1   c2.7,0.1,5.1,0.9,7.4,1.9c0.7,0.3,1.3,0.7,1.8,1c4.6,3.3,7.3,7.9,8.8,13.4C973.2,108.7,973.3,111.1,973.3,114.5z M853,222   c0-3.3,0.1-6.4,0.4-9.5c0-0.6,0.1-1.2,0.3-1.8c0.3-0.3,0.7-0.7,0.7-1.2c0-1.2,0-2.4,0.1-3.6c0-0.3,0-0.7,0.1-1   c0.3-0.6,0.6-1,1.3-1.2c0.7-0.3,1.3-0.3,2.1,0c0.3,0.1,0.7,0.3,0.9,0.6c0.7,0.9,1.3,1.9,1.3,3.3c0,1.3,0,2.8,0.1,4.3   c0,0.3,0.3,0.7,0.4,0.9c0.7,0.6,1.3,0.9,2.2,0.9c0.6,0,1.2,0,1.8,0.1c0.4,0,0.9,0.3,1.3,0.6c1,0.7,1.3,1.9,1.2,3.1   c-0.1,1.2-0.9,1.8-1.8,2.4c-0.3,0.1-0.7,0.3-1,0.3c-1,0.1-2.1-0.1-3.3,0.1c-0.3,0.1-0.7,0.3-0.7,0.7c0,0.1-0.1,0.3-0.1,0.3   c0,0.3-0.1,0.4-0.1,0.7c0,1.2-0.4,2.1-1,3c-0.3,0.4-0.7,0.9-1.3,1.3c-0.6,0.3-1.3,0.7-1.9,0.9c-0.4,0.1-0.9,0.1-1.3-0.3   c-0.3-0.3-0.6-0.4-0.7-0.7c-0.4-0.4-0.7-0.9-0.7-1.6C853,223.8,853,222.9,853,222z M862.4,716.2c0-12.5,0-25.2,0-37.7   c0-1,0-2.1,0.1-3.3c0-0.4,0.3-0.9,0.6-1.3c0.6-0.7,1.3-1.3,2.4-1.3c1.2,0,2.1,0.3,2.8,1.3c0.3,0.3,0.4,0.7,0.6,1.3   c0,0.9,0,1.8,0,2.8c0,13.7,0,27.5,0,41.2c0,11.2,0,22.2,0,33.3c0,0.9,0,1.8,0,2.8c-0.1,1.8-0.7,3.3-2.2,4.3   c-0.4,0.3-1.3,0.3-1.8,0.1c-0.1-0.1-0.3-0.1-0.3-0.3c-0.4-0.4-1-0.9-1.5-1.5c-0.3-0.3-0.6-0.7-0.6-1.3c0-0.9,0-1.8,0-2.8   C862.4,741.5,862.4,728.9,862.4,716.2z M868.1,162.7c0,13.2,0,26.5,0,39.7c0,1,0,2.1,0,3.3c0,1-0.6,1.8-1.3,2.4   c-0.7,0.7-2.2,0.7-3,0c-0.3-0.3-0.6-0.4-0.7-0.7c-0.3-0.3-0.6-0.7-0.6-1.3c0-0.9-0.1-1.8-0.1-2.8c0-8,0-16.1,0-24.1   c0-0.9,0-1.8,0-2.8c0-0.6-0.1-1.2-0.3-1.8c-0.3-0.7-0.3-1.3-0.3-2.1s0-1.6,0-2.5c0-15.9,0-31.7,0-47.5c0-0.7,0-1.6,0-2.5   c0-0.9,0.3-1.6,0.9-2.2c0.3-0.3,0.7-0.7,1-0.9c0.7-0.7,1.8-0.7,2.5,0.1c0.3,0.3,0.7,0.7,1,1c0.4,0.6,0.7,1.2,0.7,1.9   c0,1,0,2.1,0,3.3C868.1,136.4,868.1,149.5,868.1,162.7z M868.1,108.7c-0.1-1.3,0.6-2.1,1.5-2.7c0.3-0.3,0.6-0.3,0.9-0.6   c0.7-0.4,1.8-0.7,2.4-1.5c0.3-0.3,0.7-0.4,1.3-0.7c0.7-0.4,1.8-0.7,2.4-1.5c0.4-0.3,1-0.6,1.5-0.9s1-0.6,1.5-0.9   c0.7-0.6,1.3-0.9,2.1-1.3c0.7-0.4,1.8-0.7,2.5-1.3c0.7-0.3,1.5-0.7,2.1-1.3c0.3-0.3,0.7-0.4,1.3-0.7c0.7-0.4,1.8-0.7,2.4-1.5   c0.4-0.3,1-0.6,1.5-0.9c1.3-0.7,2.5-1.3,3.7-2.1c0.4-0.3,1-0.6,1.5-0.7c1.2-0.6,2.2-1.2,3.3-1.9c0.3-0.3,0.7-0.4,1.3-0.7   c0.4-0.3,0.9-0.3,1.3-0.7c1.3-1,2.8-1.8,4.3-2.4c1-0.6,2.2-1,3.1-1.8c0.3-0.3,0.6-0.3,0.9-0.6c0.9-0.4,1.8-1,2.8-1.6   c0.7-0.4,1.5-0.7,2.2-1.2c1.8-1.3,3.9-2.2,5.8-3.3c0.4-0.3,0.7-0.4,1.3-0.7c0.7-0.6,1.3-0.9,2.1-1.3c0.1,0,0.3-0.1,0.3-0.1   c0.9-0.6,1.8-1.2,2.8-1.6c0.9-0.6,1.8-0.9,2.8-1.5c1.6-1.3,3.7-2.2,5.5-3.1c1.3-0.7,2.4-1.5,3.6-2.2c0.6-0.3,1.2-0.7,1.8-1.2   c1.3-0.7,2.8-1.3,4-2.2c0.3-0.1,0.4-0.3,0.6-0.3c0.9-0.4,1.8-1,2.8-1.6c0.7-0.6,1.6-0.9,2.5-1.3c1.3-0.7,2.8-1.3,4-2.2   c0.3-0.1,0.3-0.3,0.6-0.3c1-0.6,2.1-1,3-1.8c0.3-0.3,0.7-0.4,1.3-0.7c0.4-0.3,1-0.6,1.5-0.9c0.7-0.6,1.6-1,2.4-1.5   c0.9-0.4,1.9-0.9,2.8-1.5c0.9-0.4,1.8-1.2,2.8-1.6c0.7-0.4,1.8-0.7,2.4-1.5c0.3-0.3,0.6-0.3,0.9-0.6c1.6-0.7,3.3-1.5,4.6-2.7   c0.3-0.3,0.7-0.4,1.3-0.7c1.2-0.6,2.2-1,3.3-1.9c0.3-0.3,0.7-0.4,1.3-0.7c0.4-0.3,0.9-0.3,1.3-0.7c1.3-1.2,3-1.8,4.6-2.7   c0.9-0.4,1.9-0.9,2.8-1.6c0.3-0.3,0.6-0.3,0.9-0.6c0.3-0.1,0.7-0.3,0.9-0.4c0.9-0.6,1.8-1.2,2.8-1.6c0.9-0.6,1.9-0.9,2.8-1.5   c1.3-0.9,2.7-1.6,4-2.2c0.6-0.3,1.2-0.3,1.8-0.3c1.3-0.1,2.2,0.6,3,1.6c0.4,0.7,0.4,2.1-0.1,2.7c-0.7,0.9-1.6,1.8-2.7,2.2   c-0.7,0.3-1.8,0.7-2.4,1.5c-0.3,0.1-0.3,0.3-0.6,0.3c-1,0.6-2.2,1-3.1,1.6c-1,0.6-1.9,1.3-3,1.8c-1.2,0.4-1.9,1.3-3,1.8   c-0.9,0.4-1.9,0.7-2.8,1.5c-1.3,0.9-2.7,1.6-4,2.2c-0.6,0.3-1.3,0.7-1.8,1.2c-0.4,0.3-1,0.6-1.5,0.9s-0.9,0.3-1.3,0.7   c-1.3,1-2.8,1.8-4.3,2.4c-1,0.6-2.2,1-3.1,1.8c-0.3,0.3-0.6,0.3-0.9,0.6c-0.9,0.4-1.8,1-2.8,1.6c-0.7,0.4-1.5,0.7-2.2,1.2   c-1.8,1.3-3.9,2.2-5.8,3.3c-0.4,0.3-0.7,0.4-1.3,0.7c-0.7,0.6-1.3,0.9-2.1,1.3c-0.1,0-0.3,0.1-0.3,0.1c-0.9,0.6-1.8,1.2-2.8,1.6   c-0.9,0.6-1.8,0.9-2.8,1.5c-1.3,1.2-3,1.8-4.6,2.7c-0.3,0.1-0.7,0.3-0.9,0.6c-0.7,0.6-1.6,1-2.4,1.5c-0.4,0.3-0.7,0.4-1.3,0.7   c-0.7,0.6-1.6,1-2.4,1.5c-0.9,0.4-1.9,0.9-2.8,1.5c-0.9,0.4-1.8,1.2-2.8,1.6c-0.7,0.4-1.8,0.7-2.4,1.5c-0.3,0.3-0.6,0.3-0.9,0.6   c-1.6,0.7-3.3,1.5-4.6,2.7c-0.3,0.3-0.6,0.3-0.9,0.4c-0.7,0.4-1.8,0.7-2.5,1.3c-0.7,0.3-1.3,1-2.1,1.3c-1.2,1-2.5,1.6-3.9,2.2   c-1.3,0.7-2.7,1.2-3.7,2.1c-0.3,0.3-0.7,0.4-1.3,0.7c-0.7,0.3-1.5,0.7-2.1,1.3c-0.3,0.3-0.6,0.3-0.9,0.6c-1.6,0.7-3.3,1.5-4.6,2.7   c-0.3,0.3-0.7,0.4-1.3,0.7c-1.2,0.6-2.2,1-3.3,1.9c-0.3,0.3-0.7,0.4-1.3,0.7c-0.4,0.3-0.9,0.3-1.3,0.7c-1.3,1.2-3,1.8-4.6,2.7   c-0.9,0.4-1.9,0.9-2.8,1.6c-0.3,0.3-0.6,0.3-0.9,0.6c-0.9,0.4-1.8,0.9-2.8,1.6c-0.4,0.3-1,0.6-1.5,0.7c-0.6,0.3-1.3,0.7-1.8,1.2   c-0.4,0.3-1,0.6-1.5,0.9c-1,0.6-2.1,1-3.1,1.6c-0.6,0.3-1,0.6-1.5,0.9c-0.6,0.4-1.2,0.7-1.8,1s-1.3,0.7-1.8,1.2   c-1.2,0.9-2.4,1.5-3.9,1.9c-0.7,0.3-1.6,0.1-2.2-0.4C868.5,110.6,867.9,109.9,868.1,108.7z M898.4,515.4c0,1.2,0,2.4,0,3.6   c0,0.3,0,0.4,0.1,0.7c0.1,0.1,0.3,0.3,0.6,0.3c1-0.6,2.1-1.2,3.1-1.8c19.8-11.5,39.6-22.8,59.4-34.2c7.9-4.6,15.9-9.2,24.1-13.8   c0.6-0.3,1.3-0.7,1.8-1.2c0.4-0.3,0.7-0.6,0.7-1.2c0-1.2,0-2.4,0-3.6c0-59.7,0-119.4,0-179.1c0-0.7,0-1.6,0-2.5c0-0.3,0-0.7,0-1   c0-0.6-0.4-0.9-0.9-0.7c-0.6,0.3-1.3,0.7-1.8,1c-25.8,14.9-51.5,29.6-77.3,44.5c-3.1,1.8-6.1,3.6-9.4,5.2c-0.3,0.1-0.3,0.3-0.3,0.6   c-0.3,1.2-0.1,2.4-0.1,3.6c0,29.9,0,60,0,89.9C898.4,455.6,898.4,485.3,898.4,515.4z M1011.9,47.1c0-1.3,0-2.7,0-3.9   c0-0.3-0.1-0.7-0.1-1c0-0.3-0.6-0.6-0.7-0.4c-1,0.6-2.1,1.2-3.1,1.8c-31.4,18-62.8,36-94.2,54.2c-11.3,6.4-22.6,13-33.8,19.5   c-0.6,0.3-1.3,0.7-1.8,1.2c-0.3,0.3-0.6,0.4-0.6,0.7c0,0.9,0,1.8,0,2.8c0,7,0,14,0,21c0,19.7,0,39.5,0,59c0,1.2,0,2.4,0.1,3.6   c0,0.3,0.3,0.3,0.6,0.3c0.3,0,0.7-0.1,0.9-0.3c4.5-2.7,8.9-5.2,13.5-7.9c0.7-0.4,1.6-0.9,2.4-1.3c0.7-0.4,1.8-0.7,2.8-0.7   c2.1,0.1,3.6,1,4.6,2.8c0.3,0.6,0.6,1,0.6,1.6c0,1.3,0.1,2.7,0.1,3.9c0,36.3,0,72.5,0,108.7c0,0.9,0,1.8,0,2.8c0,0.3,0,0.4,0.1,0.7   c0.1,0.1,0.4,0.3,0.6,0.3c1.2-0.3,2.1-1,3.1-1.6c27.2-15.6,54.3-31.3,81.6-46.9c0.7-0.4,1.6-0.9,2.4-1.3c0.7-0.4,1.5-0.7,2.2-0.7   c0.3-0.1,0.7-0.1,1,0c0.6,0.1,1.2,0.3,1.8,0.4c1.8,0.7,2.8,2.2,3,4c0.1,1.3,0.1,2.7,0.1,3.9c0,64.9,0,129.8,0,194.7   c0,0.7,0,1.6,0,2.5c0,0.4,0,0.9-0.1,1.3c0,0.4-0.3,0.9-0.4,1.3c-0.4,0.7-1,1.6-1.8,2.1c-0.6,0.3-1.3,0.7-1.8,1   c-20.5,11.9-41.2,23.7-61.8,35.6c-8.9,5.2-18,10.4-27.1,15.5c-0.7,0.4-1.8,0.9-2.4,1.5c-0.3,0.1-0.3,0.3-0.3,0.6   c0,1.2-0.1,2.4-0.1,3.6c0,37.7,0,75.3,0,113c0,1.3,0,2.8,0,4.3c0,0.6,0,1.2-0.1,1.8c0,0.3-0.1,0.7-0.3,1c-0.4,1.2-1.3,2.1-2.2,2.7   c-0.6,0.3-1.3,0.7-1.8,1c-6,3.4-11.9,6.8-17.9,10.3c-3.9,2.2-3.3,1.2-3.3,5.8c0,26.5,0,53.1,0,79.5c0,0.7,0,1.3,0,2.2   c0,0.3,0,0.7,0,1c0,0.4,0.6,0.7,1,0.6c1-0.6,2.1-1.2,3.1-1.8c37.8-21.7,75.8-43.5,113.6-65.4c4.8-2.8,9.4-5.4,14.1-8.2   c0.6-0.3,1.3-0.7,1.8-1c0.4-0.3,0.7-0.7,0.7-1.2c0-1.3,0-2.7,0-3.9c0-105,0-209.9,0-314.9C1011.9,256.5,1011.9,151.9,1011.9,47.1z    M853.8,210.8c-0.1-0.4-0.1-0.9-0.1-1.3c0-3.6,0-7.1,0-10.7c0-21.6,0-43,0-64.8c0-8,0-16.1,0-24.1c0-0.9,0-1.8,0.1-2.8   c0-0.6,0.3-1.2,0.6-1.6c0.4-0.7,1-1.5,1.9-2.1c1.2-0.7,2.2-1.3,3.3-1.9c11.6-6.7,23.1-13.4,34.8-20.1c0.7-0.4,1.3-0.7,2.1-1.3   c0.4-0.3,0.4-0.6,0.1-0.7c-0.3-0.3-0.6-0.4-0.7-0.6c-7-4-14-8-21-11.9c-0.1-0.1-0.3-0.1-0.3-0.1c-0.7-0.3-1.3-0.4-1.9-0.1   c-1.8,1-3.4,1.9-5.4,3C807.9,103,748.5,136.7,689,170.2c-3.9,2.2-7.6,4.3-11.5,6.4c-0.3,0.1-0.6,0.4-0.7,0.7   c-0.3,0.3-0.3,0.4,0,0.6c0.7,0.4,1.3,0.9,2.1,1.3c37.1,21.4,74.3,42.9,111.4,64.2c1.6,0.9,3.3,1.8,4.9,2.8c1.9,0.6,3.9,1,5.8,1.6   c0.4,0.1,0.9,0.3,1.3,0.3c0.4,0.1,0.9,0.1,1.3,0c1.6-0.4,3.3-0.7,4.8-1.3c1.8-0.4,3.3-1.2,4.8-2.1c12.5-7.3,25-14.4,37.5-21.6   c0.7-0.4,1.3-0.7,2.1-1.3C854.8,218.4,854.7,214.5,853.8,210.8z M892.2,216.2c0-1,0-2.1-0.1-3.3c0-0.3-0.4-0.6-0.7-0.3   c-0.7,0.3-1.5,0.7-2.2,1.2c-18.3,10.4-36.5,21-54.8,31.6c-5.8,3.3-11.8,6.7-17.6,10.1c-0.9,0.6-1.8,0.9-2.8,1.3   c-2.8,0.7-5.5,1.5-8.2,2.2c-1.8,0.4-3.4,0.4-5.4,0c-2.1-0.6-4-1.3-6.1-1.8c-2.2-0.6-4.5-1.5-6.6-2.7c-35.7-20.5-71.5-41.1-107-61.8   c-3-1.8-6-3.4-8.9-5.2c-0.3-0.1-0.4-0.1-0.7-0.1c-0.3,0-0.4,0.1-0.4,0.3c0,1.3-0.1,2.7-0.1,3.9c0,142,0,284,0,426.1   c0,1,0,2.2,0,3.3c-0.1,1.2,0.4,1.8,1.3,2.2c0.7,0.3,1.3,0.7,2.2,1.3c26.2,15,52.3,30.2,78.5,45.3c13.5,7.9,27.1,15.5,40.6,23.4   c1.3,0.7,2.8,1.3,4.3,1.8c1.6,0.4,3.3,0.9,4.8,1.3c0.6,0.1,1.2,0.3,1.8,0c1.9-0.6,3.9-1,5.8-1.6c1-0.3,2.1-0.7,2.8-1.3   c0.6-0.3,1.3-0.7,1.8-1c16.1-9.2,32.3-18.6,48.4-27.7c1.5-0.9,3.1-1.8,4.6-2.8c0.3-0.3,0.7-0.4,1.3-0.7c1.3-0.4,2.2-1.2,3.4-1.8   c5.8-3.3,11.5-6.6,17.3-10c0.7-0.4,1.6-1,2.4-1.5c0.3-0.3,0.4-0.6,0.4-0.9c0-1.2,0-2.4,0-3.6c0-31,0-61.8,0-92.7c0-2.8,0-5.4,0-8.2   c0-0.6,0-1.2-0.1-1.8c0-0.3-0.1-0.4-0.3-0.6c-0.6-0.3-1.3-0.6-1.8-1c-1-0.7-1.8-1.6-2.1-2.8c-0.1-0.6-0.3-1.2-0.3-1.8   c0-0.7,0-1.6,0-2.5c0-67.6,0-135.3,0-202.9c0-0.7,0-1.6,0-2.5c0-0.6,0.1-1.2,0.3-1.8c0.3-1,0.7-1.9,1.8-2.7   c0.3-0.3,0.6-0.4,0.9-0.6c0.3-0.3,0.7-0.6,1.2-0.7c0.3-0.3,0.7-0.7,0.7-1.2c0-1,0-2.2,0-3.3c0-16.7,0-33.3,0-50   C892.2,249.7,892.2,232.9,892.2,216.2z M1022.7,357.9c0,107.8,0,215.6,0,323.3c0,0.7,0,1.6,0,2.5c0,0.6-0.1,1.2-0.3,1.8   c-0.3,1.2-1,2.1-2.1,2.8c-0.9,0.6-1.8,1-2.8,1.6c-14.6,8.3-29.3,16.8-43.9,25.3c-32.2,18.5-64.3,36.8-96.3,55.4   c-0.7,0.4-1.6,0.9-2.4,1.3c-1.8,0.9-3.7,1-5.4,0c-4.3-2.2-8.3-4.8-12.7-7.1c-0.3-0.3-0.6-0.3-0.9-0.6c-1.2-0.9-1.9-2.1-1.9-3.6   c0-1,0-2.2,0-3.3c0-23.7,0-47,0-70.7c0-1.2,0-2.4-0.1-3.6c-0.3-0.1-0.3-0.3-0.6-0.3c-0.3,0-0.4,0-0.7,0.1c-1,0.6-2.1,1.2-3.1,1.8   c-10.6,6.1-21.1,12.1-31.7,18.2c-1.5,0.9-3.1,1.6-4.8,2.1c-2.1,0.4-4.2,1.2-6.3,1.6c-0.1,0-0.3,0.1-0.3,0.1c-3.4,0.7-2.8,0.7-6.3,0   c-2.2-0.6-4.6-1.3-6.8-1.8c-1.5-0.3-2.8-0.9-4.3-1.8c-11-6.4-22-12.8-33.3-19.1c-30.2-17.4-60.4-34.8-90.7-52.3   c-0.7-0.4-1.6-0.9-2.4-1.3c-1-0.6-1.8-1.5-2.2-2.7c-0.3-0.4-0.3-0.9-0.3-1.3c0-0.4,0-0.9,0-1.3c0-0.9,0-1.8,0-2.8   c0-147.1,0-294,0-441c0-1.3,0-2.7,0-3.9c0-1.5,0.7-2.8,1.9-3.7c0.6-0.4,1.2-0.7,1.8-1.2c3.3-1.9,6.8-3.9,10.3-5.8   c65.1-36.8,130-73.4,195-110.3c0.9-0.6,1.8-1,2.8-1.5c1.3-0.6,2.8-0.6,4.2,0c0.7,0.3,1.8,0.9,2.5,1.3c8.8,4.9,17.6,10,26.2,15   c1.2,0.7,2.2,1.3,3.4,1.8c0.3,0.3,0.7,0.1,1,0c0.7-0.3,1.5-0.7,2.2-1.2c11.5-6.6,22.8-13.1,34.2-19.7c18-10.4,36.2-20.7,54.2-31.1   c0.7-0.4,1.3-0.7,2.2-1.3c0.6-0.3,1-0.4,1.6-0.7c0.7-0.3,1.6-0.3,2.4,0c0.7,0.3,1.3,0.4,1.9,0.7c4,2.2,8,4.6,12.1,6.8   c0.3,0.1,0.3,0.3,0.6,0.3c1.6,1,2.4,2.5,2.5,4.3c0,0.4,0,0.9,0,1.3c0,1.6,0,3.3,0,4.9C1022.7,144.6,1022.7,251.2,1022.7,357.9z"/>
	<rect x="793" y="254.1" class="st1" width="11.5" height="444.4"/>
</g>
</svg>