<?xml version="1.0" encoding="utf-8"?>
<!-- Generator: Adobe Illustrator 19.2.1, SVG Export Plug-In . SVG Version: 6.00 Build 0)  -->
<svg version="1.1" id="Layer_1" xmlns="http://www.w3.org/2000/svg" xmlns:xlink="http://www.w3.org/1999/xlink" x="0px" y="0px"
	 viewBox="0 0 160.2 174" style="enable-background:new 0 0 160.2 174;" xml:space="preserve">
<path d="M56.9,95.4l3.8,3.7l-11.8,33.1c-2.5,7.1-9.8,23.3-8,30.6c3,12.3,24,10.8,36.7,11.1v0.2c0.8,0,1.7-0.1,2.5-0.1
	c0.8,0,1.7,0.1,2.5,0.1v-0.2c12.6-0.2,33.6,1.2,36.7-11.1c1.8-7.3-5.5-23.5-8-30.6L99.6,99l3.8-3.7c3.8-4.5,10-18.8,5.1-24.8
	c0.4-5.5-4.5-12.5-8-15.7c-3.9-3.5-10-6.9-17.5-7.6c-1-0.1-1.9-0.1-2.9-0.1c-0.9,0-1.9,0-2.9,0.1c-7.5,0.7-13.6,4.1-17.5,7.6
	c-3.5,3.2-8.4,10.2-8,15.7C46.9,76.6,53.1,90.9,56.9,95.4"/>
<path d="M34.4,44.3c6.2-3.9,8.8-9.1,14.7-13c6.8-4.5,15.3-5.3,19-8.8L63.9,0.1c-11.5-1-30.3,12.5-36.4,17.5
	C5.8,35.1-4.9,68,2.1,96.9c2.3,9.5,11.7,30.8,19.4,35c2.9-4.6,5.8-15.3,7.8-21.7c3-9.4-11.2-20.3-3.4-47.4
	C28,55.9,33.8,47.6,34.4,44.3"/>
<path d="M155.6,51.6C153.1,39.9,140,23.8,133,17.6c-7.6-6.7-21.5-14.4-32-17.1C95.8-0.7,96.6,1,96.6,1c-1.8,2.1-3,12.5-3.5,15.9
	l-0.5,6.2c35.3,8.5,53.3,45.7,38.8,78.5c-2.9,6.6-1.1,7.6,1.4,15.2c1.8,5.4,3.2,11,5.2,15.7c7-3.4,16.9-23.3,19.6-34.7
	C162.1,79.1,160.4,68.9,155.6,51.6"/>
</svg>
